# xmcd
#
# Track frame offsets:
#	150
#	19607
#	39320
#	56567
#	83035
#
# Disc length: 1826 seconds
#
# Revision: 0
# Processed by: cddbd v1.5PL3 Copyright (c) Steve Scherf et al.
# Submitted via: CDDB.pm 1.12
#
DISCID=2f072005
DTITLE=A - Sing-a-long (Single - Disc 2)
DYEAR=1998
DGENRE=Rock
TTITLE0=Sing-a-long (Album version)
TTITLE1=Sing-a-long (Post Term Audit mix)
TTITLE2=Singing out of tune (Literally, in a castle)
TTITLE3=Number one (Radio edit)
TTITLE4=Number one (Video)
EXTD=
EXTT0=
EXTT1=
EXTT2=
EXTT3=
EXTT4=
PLAYORDER=
